<svg xmlns="http://www.w3.org/2000/svg" xmlns:xlink="http://www.w3.org/1999/xlink" width="324" height="324" viewBox="0 0 324 324"><defs><linearGradient id="a" x1="258" y1="161" x2="66" y2="161" gradientUnits="userSpaceOnUse"><stop offset="0" stop-color="#69dbf8" stop-opacity="0"/><stop offset="0.5" stop-color="#69dbf8"/><stop offset="1" stop-color="#69dbf8" stop-opacity="0"/></linearGradient><linearGradient id="aa" x1="207" y1="141" x2="169" y2="141" gradientUnits="userSpaceOnUse"><stop offset="0" stop-color="#69dbf8"/><stop offset="1" stop-color="#69dbf8" stop-opacity="0"/></linearGradient><linearGradient id="ab" y1="149" x2="169" y2="149" xlink:href="#aa"/><linearGradient id="ac" y1="157" x2="169" y2="157" xlink:href="#aa"/><linearGradient id="ad" y1="165" x2="169" y2="165" xlink:href="#aa"/><linearGradient id="ae" y1="173" x2="169" y2="173" xlink:href="#aa"/><linearGradient id="af" y1="181" x2="169" y2="181" xlink:href="#aa"/><linearGradient id="ag" y1="189" x2="169" y2="189" xlink:href="#aa"/><linearGradient id="ah" y1="197" x2="169" y2="197" xlink:href="#aa"/><linearGradient id="ai" x1="197" y1="189" x2="159" y2="189" gradientTransform="matrix(-1, 0, 0, 1, 410, 0)" xlink:href="#aa"/><linearGradient id="aj" x1="245" y1="205" x2="159" y2="205" gradientTransform="matrix(-1, 0, 0, 1, 410, 0)" xlink:href="#a"/><linearGradient id="ak" x1="245" y1="125" x2="159" y2="125" gradientTransform="matrix(-1, 0, 0, 1, 410, 0)" xlink:href="#a"/><linearGradient id="al" x1="245" y1="117" x2="159" y2="117" gradientTransform="matrix(-1, 0, 0, 1, 410, 0)" xlink:href="#a"/><linearGradient id="am" x1="245" y1="109" x2="155" y2="109" gradientTransform="matrix(-1, 0, 0, 1, 410, 0)" xlink:href="#a"/><linearGradient id="an" x1="245" y1="213" x2="159" y2="213" gradientTransform="matrix(-1, 0, 0, 1, 410, 0)" xlink:href="#a"/><linearGradient id="ao" x1="245" y1="221" x2="159" y2="221" gradientTransform="matrix(-1, 0, 0, 1, 410, 0)" xlink:href="#a"/><linearGradient id="ap" x1="197" y1="197" x2="159" y2="197" gradientTransform="matrix(-1, 0, 0, 1, 410, 0)" xlink:href="#aa"/><linearGradient id="aq" x1="197" y1="181" x2="159" y2="181" gradientTransform="matrix(-1, 0, 0, 1, 410, 0)" xlink:href="#aa"/><linearGradient id="ar" x1="197" y1="173" x2="159" y2="173" gradientTransform="matrix(-1, 0, 0, 1, 410, 0)" xlink:href="#aa"/><linearGradient id="as" x1="197" y1="165" x2="159" y2="165" gradientTransform="matrix(-1, 0, 0, 1, 410, 0)" xlink:href="#aa"/><linearGradient id="at" x1="197" y1="157" x2="159" y2="157" gradientTransform="matrix(-1, 0, 0, 1, 410, 0)" xlink:href="#aa"/><linearGradient id="au" x1="197" y1="149" x2="159" y2="149" gradientTransform="matrix(-1, 0, 0, 1, 410, 0)" xlink:href="#aa"/><linearGradient id="av" x1="197" x2="159" gradientTransform="matrix(-1, 0, 0, 1, 410, 0)" xlink:href="#aa"/><linearGradient id="aw" y1="133" x2="169" y2="133" xlink:href="#aa"/><linearGradient id="ax" x1="197" y1="133" x2="159" y2="133" gradientTransform="matrix(-1, 0, 0, 1, 410, 0)" xlink:href="#aa"/><clipPath id="ay"><circle cx="114" cy="164.43" r="36" transform="translate(-82.88 128.77) rotate(-45)" fill="#ccd6dd"/></clipPath></defs><title>Zeichenfläche 1</title><g style="isolation:isolate"><path d="M162,28.83a48,48,0,0,0-24.82,6.94l-82.76,50A34.19,34.19,0,0,0,38,114.87V212a34.12,34.12,0,0,0,16.84,29.35l82.93,48.49a48.05,48.05,0,0,0,48.46,0l82.93-48.49A34.12,34.12,0,0,0,286,212V114.87a34.18,34.18,0,0,0-16.42-29.1l-82.76-50A48,48,0,0,0,162,28.83Z" fill="#15232b"/><g opacity="0.2"><line x1="258" y1="125" x2="66" y2="125" fill="none" stroke-linecap="round" stroke-linejoin="round" stroke-width="2" stroke="url(#a)"/><line x1="258" y1="133" x2="66" y2="133" fill="none" stroke-linecap="round" stroke-linejoin="round" stroke-width="2" stroke="url(#a)"/><line x1="258" y1="141" x2="66" y2="141" fill="none" stroke-linecap="round" stroke-linejoin="round" stroke-width="2" stroke="url(#a)"/><line x1="258" y1="149" x2="66" y2="149" fill="none" stroke-linecap="round" stroke-linejoin="round" stroke-width="2" stroke="url(#a)"/><line x1="258" y1="157" x2="66" y2="157" fill="none" stroke-linecap="round" stroke-linejoin="round" stroke-width="2" stroke="url(#a)"/><line x1="258" y1="165" x2="66" y2="165" fill="none" stroke-linecap="round" stroke-linejoin="round" stroke-width="2" stroke="url(#a)"/><line x1="258" y1="173" x2="66" y2="173" fill="none" stroke-linecap="round" stroke-linejoin="round" stroke-width="2" stroke="url(#a)"/><line x1="258" y1="181" x2="66" y2="181" fill="none" stroke-linecap="round" stroke-linejoin="round" stroke-width="2" stroke="url(#a)"/><line x1="258" y1="189" x2="66" y2="189" fill="none" stroke-linecap="round" stroke-linejoin="round" stroke-width="2" stroke="url(#a)"/><line x1="258" y1="197" x2="66" y2="197" fill="none" stroke-linecap="round" stroke-linejoin="round" stroke-width="2" stroke="url(#a)"/><line x1="258" y1="205" x2="66" y2="205" fill="none" stroke-linecap="round" stroke-linejoin="round" stroke-width="2" stroke="url(#a)"/><line x1="258" y1="213" x2="66" y2="213" fill="none" stroke-linecap="round" stroke-linejoin="round" stroke-width="2" stroke="url(#a)"/><line x1="251" y1="221" x2="73" y2="221" fill="none" stroke-linecap="round" stroke-linejoin="round" stroke-width="2" stroke="url(#a)"/><line x1="237" y1="229" x2="87" y2="229" fill="none" stroke-linecap="round" stroke-linejoin="round" stroke-width="2" stroke="url(#a)"/><line x1="224" y1="237" x2="100" y2="237" fill="none" stroke-linecap="round" stroke-linejoin="round" stroke-width="2" stroke="url(#a)"/><line x1="210" y1="245" x2="114" y2="245" fill="none" stroke-linecap="round" stroke-linejoin="round" stroke-width="2" stroke="url(#a)"/><line x1="196" y1="253" x2="128" y2="253" fill="none" stroke-linecap="round" stroke-linejoin="round" stroke-width="2" stroke="url(#a)"/><line x1="183" y1="261" x2="141" y2="261" fill="none" stroke-linecap="round" stroke-linejoin="round" stroke-width="2" stroke="url(#a)"/><line x1="150" y1="61" x2="174" y2="61" fill="none" stroke-linecap="round" stroke-linejoin="round" stroke-width="2" stroke="url(#a)"/><line x1="188" y1="69" x2="136" y2="69" fill="none" stroke-linecap="round" stroke-linejoin="round" stroke-width="2" stroke="url(#a)"/><line x1="201" y1="77" x2="123" y2="77" fill="none" stroke-linecap="round" stroke-linejoin="round" stroke-width="2" stroke="url(#a)"/><line x1="215" y1="85" x2="110" y2="85" fill="none" stroke-linecap="round" stroke-linejoin="round" stroke-width="2" stroke="url(#a)"/><line x1="227" y1="93" x2="97" y2="93" fill="none" stroke-linecap="round" stroke-linejoin="round" stroke-width="2" stroke="url(#a)"/><line x1="241" y1="101" x2="83" y2="101" fill="none" stroke-linecap="round" stroke-linejoin="round" stroke-width="2" stroke="url(#a)"/><line x1="250" y1="109" x2="70" y2="109" fill="none" stroke-linecap="round" stroke-linejoin="round" stroke-width="2" stroke="url(#a)"/><line x1="258" y1="117" x2="66" y2="117" fill="none" stroke-linecap="round" stroke-linejoin="round" stroke-width="2" stroke="url(#a)"/></g><path d="M267.51,89.19l-82.76-50h0a43.88,43.88,0,0,0-45.51,0l-82.76,50A30.16,30.16,0,0,0,42,114.87V212a30.11,30.11,0,0,0,14.86,25.9l82.93,48.49a44.05,44.05,0,0,0,44.42,0l82.93-48.49A30.11,30.11,0,0,0,282,212V114.87A30.16,30.16,0,0,0,267.51,89.19ZM258,212a6,6,0,0,1-3,5.18l-82.93,48.49a20,20,0,0,1-20.19,0L69,217.17A6,6,0,0,1,66,212V114.87a6,6,0,0,1,2.9-5.14l82.76-50a19.95,19.95,0,0,1,20.69,0h0l82.76,50a6,6,0,0,1,2.9,5.14Z" fill="#dfedf4"/><path d="M267.51,89.19l-82.76-50h0A44,44,0,0,0,162,32.83v24a20,20,0,0,1,10.34,2.89h0l82.76,50a5.89,5.89,0,0,1,.49.34l23.57-7.86A30.07,30.07,0,0,0,267.51,89.19Z" fill="#fff"/><path d="M151.9,265.66,69,217.17A6,6,0,0,1,66,212V114.87a6,6,0,0,1,.44-2.24L45.46,101A30,30,0,0,0,42,114.87V212a30.11,30.11,0,0,0,14.86,25.9l82.93,48.49a44,44,0,0,0,22.21,6v-24A20,20,0,0,1,151.9,265.66Z" fill="#b8cddd"/><path d="M162,56.85a20,20,0,0,1,10.34,2.88l82.76,50a6,6,0,0,1,2.9,5.14V212a7,7,0,0,1-3.24,5.66L172.24,265.9a21,21,0,0,1-10,2.53,20.48,20.48,0,0,1-10.33-2.78L69,217.16A6,6,0,0,1,66,212V114.87a6,6,0,0,1,2.9-5.14l82.76-50A20,20,0,0,1,162,56.85m0-12a32,32,0,0,0-16.55,4.61l-82.76,50A18,18,0,0,0,54,114.87V212a18,18,0,0,0,8.91,15.54L145.85,276a32.44,32.44,0,0,0,16.39,4.42,33,33,0,0,0,15.91-4.09l82.93-48.49A19,19,0,0,0,270,212V114.87a18,18,0,0,0-8.69-15.41l-82.76-50A32,32,0,0,0,162,44.85Z" fill="#b8cddd"/><path d="M32,112.55h6a0,0,0,0,1,0,0v104a0,0,0,0,1,0,0H32a6,6,0,0,1-6-6v-92A6,6,0,0,1,32,112.55Z" fill="#b8cddd" stroke="#15232b" stroke-width="4"/><rect x="38" y="121.55" width="16" height="86" fill="#15232b"/><rect x="38" y="121.55" width="16" height="86" fill="none" stroke="#15232b" stroke-width="4"/><line x1="206" y1="141" x2="170" y2="141" fill="none" stroke-linecap="round" stroke-linejoin="round" stroke-width="2" opacity="0.65" stroke="url(#aa)"/><line x1="206" y1="149" x2="170" y2="149" fill="none" stroke-linecap="round" stroke-linejoin="round" stroke-width="2" opacity="0.65" stroke="url(#ab)"/><line x1="206" y1="157" x2="170" y2="157" fill="none" stroke-linecap="round" stroke-linejoin="round" stroke-width="2" opacity="0.65" stroke="url(#ac)"/><line x1="206" y1="165" x2="170" y2="165" fill="none" stroke-linecap="round" stroke-linejoin="round" stroke-width="2" opacity="0.65" stroke="url(#ad)"/><line x1="206" y1="173" x2="170" y2="173" fill="none" stroke-linecap="round" stroke-linejoin="round" stroke-width="2" opacity="0.65" stroke="url(#ae)"/><line x1="206" y1="181" x2="170" y2="181" fill="none" stroke-linecap="round" stroke-linejoin="round" stroke-width="2" opacity="0.65" stroke="url(#af)"/><line x1="206" y1="189" x2="170" y2="189" fill="none" stroke-linecap="round" stroke-linejoin="round" stroke-width="2" opacity="0.65" stroke="url(#ag)"/><line x1="206" y1="197" x2="170" y2="197" fill="none" stroke-linecap="round" stroke-linejoin="round" stroke-width="2" opacity="0.65" stroke="url(#ah)"/><line x1="214" y1="189" x2="250" y2="189" fill="none" stroke-linecap="round" stroke-linejoin="round" stroke-width="2" opacity="0.65" stroke="url(#ai)"/><line x1="166" y1="205" x2="250" y2="205" fill="none" stroke-linecap="round" stroke-linejoin="round" stroke-width="2" opacity="0.65" stroke="url(#aj)"/><line x1="166" y1="125" x2="250" y2="125" fill="none" stroke-linecap="round" stroke-linejoin="round" stroke-width="2" opacity="0.65" stroke="url(#ak)"/><line x1="166" y1="117" x2="250" y2="117" fill="none" stroke-linecap="round" stroke-linejoin="round" stroke-width="2" opacity="0.35" stroke="url(#al)"/><line x1="166" y1="109" x2="254" y2="109" fill="none" stroke-linecap="round" stroke-linejoin="round" stroke-width="2" opacity="0.2" stroke="url(#am)"/><line x1="166" y1="213" x2="250" y2="213" fill="none" stroke-linecap="round" stroke-linejoin="round" stroke-width="2" opacity="0.35" stroke="url(#an)"/><line x1="166" y1="221" x2="250" y2="221" fill="none" stroke-linecap="round" stroke-linejoin="round" stroke-width="2" opacity="0.2" stroke="url(#ao)"/><line x1="214" y1="197" x2="250" y2="197" fill="none" stroke-linecap="round" stroke-linejoin="round" stroke-width="2" opacity="0.65" stroke="url(#ap)"/><line x1="214" y1="181" x2="250" y2="181" fill="none" stroke-linecap="round" stroke-linejoin="round" stroke-width="2" opacity="0.65" stroke="url(#aq)"/><line x1="214" y1="173" x2="250" y2="173" fill="none" stroke-linecap="round" stroke-linejoin="round" stroke-width="2" opacity="0.65" stroke="url(#ar)"/><line x1="214" y1="165" x2="250" y2="165" fill="none" stroke-linecap="round" stroke-linejoin="round" stroke-width="2" opacity="0.65" stroke="url(#as)"/><line x1="214" y1="157" x2="250" y2="157" fill="none" stroke-linecap="round" stroke-linejoin="round" stroke-width="2" opacity="0.65" stroke="url(#at)"/><line x1="214" y1="149" x2="250" y2="149" fill="none" stroke-linecap="round" stroke-linejoin="round" stroke-width="2" opacity="0.65" stroke="url(#au)"/><line x1="214" y1="141" x2="250" y2="141" fill="none" stroke-linecap="round" stroke-linejoin="round" stroke-width="2" opacity="0.65" stroke="url(#av)"/><line x1="206" y1="133" x2="170" y2="133" fill="none" stroke-linecap="round" stroke-linejoin="round" stroke-width="2" opacity="0.65" stroke="url(#aw)"/><line x1="214" y1="133" x2="250" y2="133" fill="none" stroke-linecap="round" stroke-linejoin="round" stroke-width="2" opacity="0.65" stroke="url(#ax)"/><path d="M62,112.43h0a0,0,0,0,1,0,0v104a0,0,0,0,1,0,0h0a8,8,0,0,1-8-8v-88A8,8,0,0,1,62,112.43Z" fill="#7a8d96"/><path d="M60,112.43h54a52,52,0,0,1,52,52v0a52,52,0,0,1-52,52H60a6,6,0,0,1-6-6v-92a6,6,0,0,1,6-6Z" fill="#b8cddd"/><path d="M60,112.43h54a52,52,0,0,1,52,52v0a52,52,0,0,1-52,52H60a6,6,0,0,1-6-6v-92a6,6,0,0,1,6-6Z" fill="none" stroke="#15232b" stroke-width="4"/><circle cx="109.89" cy="168.55" r="39.89" fill="#15232b" opacity="0.5"/><circle cx="114" cy="164.55" r="39.89" fill="#15232b"/><circle cx="114" cy="164.43" r="36" transform="translate(-82.88 128.77) rotate(-45)" fill="#ccd6dd"/><g clip-path="url(#ay)"><rect x="90.65" y="133.79" width="72" height="36" transform="translate(108.87 348.67) rotate(-135)" fill="#fafeff"/></g><circle cx="114" cy="164.55" r="28" fill="#15232b"/><path d="M114,136.43h0a28,28,0,0,1,28,28v0a0,0,0,0,1,0,0H86a0,0,0,0,1,0,0v0A28,28,0,0,1,114,136.43Z" fill="#43545e"/><circle cx="114" cy="164.55" r="12" fill="#69dbf8"/><circle cx="114" cy="164.55" r="4" fill="#fff" style="mix-blend-mode:overlay"/><circle cx="122" cy="156.43" r="8" fill="#fff" opacity="0.5"/><circle cx="74" cy="128.43" r="4" fill="#15232b" stroke="#15232b" stroke-linecap="round" stroke-linejoin="round" stroke-width="4"/><circle cx="74" cy="128.43" r="3" fill="#dfedf4"/><circle cx="74" cy="200.43" r="4" fill="#15232b" stroke="#15232b" stroke-linecap="round" stroke-linejoin="round" stroke-width="4"/><circle cx="74" cy="200.43" r="3" fill="#dfedf4"/><rect x="26" y="128.43" width="36" height="72" rx="4" ry="4" fill="#b8cddd" stroke="#15232b" stroke-linecap="round" stroke-linejoin="round" stroke-width="4"/><rect x="38" y="132.43" width="20" height="64" fill="#e8f6fc" stroke="#e8f6fc" stroke-linecap="round" stroke-linejoin="round" stroke-width="4"/><rect x="42" y="136.43" width="12" height="56" fill="#15232b" stroke="#15232b" stroke-linecap="round" stroke-linejoin="round" stroke-width="4"/><path d="M44,144.43h6a2,2,0,0,1,2,2v0a2,2,0,0,1-2,2H44a0,0,0,0,1,0,0v-4A0,0,0,0,1,44,144.43Z" fill="#b8cddd"/><path d="M44,156.43h6a2,2,0,0,1,2,2v0a2,2,0,0,1-2,2H44a0,0,0,0,1,0,0v-4A0,0,0,0,1,44,156.43Z" fill="#b8cddd"/><path d="M44,168.43h6a2,2,0,0,1,2,2v0a2,2,0,0,1-2,2H44a0,0,0,0,1,0,0v-4A0,0,0,0,1,44,168.43Z" fill="#b8cddd"/><path d="M44,180.43h6a2,2,0,0,1,2,2v0a2,2,0,0,1-2,2H44a0,0,0,0,1,0,0v-4a0,0,0,0,1,0,0Z" fill="#b8cddd"/><path d="M24,136.43h6a0,0,0,0,1,0,0v12a0,0,0,0,1,0,0H24a6,6,0,0,1-6-6v0A6,6,0,0,1,24,136.43Z" fill="#b8cddd" stroke="#15232b" stroke-linecap="round" stroke-linejoin="round" stroke-width="4"/><path d="M24,180.43h6a0,0,0,0,1,0,0v12a0,0,0,0,1,0,0H24a6,6,0,0,1-6-6v0a6,6,0,0,1,6-6Z" fill="#b8cddd" stroke="#15232b" stroke-linecap="round" stroke-linejoin="round" stroke-width="4"/><rect x="198" y="132.43" width="24" height="64" rx="12" ry="12" fill="#69dbf8"/><path d="M210,132.43a12,12,0,0,1,12,12v40a12,12,0,0,1-24,0v-40a12,12,0,0,1,12-12m0-4a16,16,0,0,0-16,16v40a16,16,0,0,0,32,0v-40a16,16,0,0,0-16-16Z" fill="#15232b"/><circle cx="210" cy="140.43" r="8" fill="#fff" opacity="0.5"/><rect x="270" y="114.61" width="12" height="8" fill="#fff"/><rect x="270" y="134.61" width="12" height="4" fill="#fff"/><path d="M172.34,59.73l82.76,50a6,6,0,0,1,2.9,5.14V212a6.33,6.33,0,0,1-1,3.34l10.94,5a18.21,18.21,0,0,0,2-8.35V114.87a18,18,0,0,0-8.69-15.41l-82.76-50A32,32,0,0,0,162,44.85v12A20,20,0,0,1,172.34,59.73Z" fill="#425f73" opacity="0.3"/><path d="M151.9,265.66,94.68,232.2,88.36,242.4,145.85,276A32.43,32.43,0,0,0,162,280.43v-12A20.47,20.47,0,0,1,151.9,265.66Z" fill="#fff" opacity="0.4"/><polygon points="86.86 227.63 80.5 237.81 83.43 239.52 89.8 229.34 86.86 227.63" fill="#fff" opacity="0.25"/></g></svg>